<svg width="1921" height="1506" viewBox="0 0 1921 1506" fill="none" xmlns="http://www.w3.org/2000/svg">
<path d="M1892.42 685.611L1235.42 28.3999C1226.42 19.3963 1215.74 12.254 1203.98 7.38103C1192.23 2.5081 1179.63 0 1166.9 0C1154.17 0 1141.57 2.5081 1129.82 7.38103C1118.06 12.254 1107.38 19.3963 1098.38 28.3999L961.954 164.867L1134.98 338.035C1155.33 331.098 1177.2 330.002 1198.14 334.871C1219.07 339.741 1238.22 350.382 1253.41 365.586C1268.68 380.888 1279.34 400.176 1284.18 421.248C1289.01 442.321 1287.83 464.329 1280.76 484.759L1447.55 651.668C1467.96 644.566 1489.97 643.367 1511.04 648.208C1532.1 653.049 1551.38 663.734 1566.65 679.037C1577.37 689.74 1585.88 702.452 1591.68 716.446C1597.48 730.44 1600.47 745.442 1600.47 760.592C1600.47 775.742 1597.48 790.744 1591.68 804.738C1585.88 818.732 1577.37 831.444 1566.65 842.147C1555.95 852.872 1543.24 861.38 1529.24 867.186C1515.25 872.991 1500.25 875.979 1485.1 875.979C1469.95 875.979 1454.95 872.991 1440.96 867.186C1426.96 861.38 1414.25 852.872 1403.55 842.147C1387.47 826.043 1376.51 805.543 1372.04 783.224C1367.58 760.906 1369.82 737.765 1378.47 716.713L1222.9 561.086V970.602C1234.2 976.155 1244.5 983.52 1253.41 992.405C1275.04 1014.05 1287.19 1043.4 1287.19 1074C1287.19 1104.6 1275.04 1133.95 1253.41 1155.6C1208.34 1200.62 1135.31 1200.62 1090.37 1155.6C1079.65 1144.89 1071.14 1132.17 1065.34 1118.17C1059.53 1104.17 1056.55 1089.16 1056.55 1074C1056.55 1058.84 1059.53 1043.83 1065.34 1029.83C1071.14 1015.83 1079.65 1003.11 1090.37 992.405C1101.13 981.574 1113.96 973.018 1128.1 967.249V553.918C1113.96 548.149 1101.13 539.594 1090.37 528.762C1074.18 512.577 1063.17 491.942 1058.74 469.48C1054.31 447.018 1056.65 423.744 1065.47 402.618L894.887 231.894L444.396 682.572C435.394 691.573 428.253 702.26 423.38 714.023C418.508 725.786 416 738.394 416 751.127C416 763.86 418.508 776.469 423.38 788.232C428.253 799.995 435.394 810.682 444.396 819.683L1101.4 1476.96C1110.4 1485.96 1121.08 1493.11 1132.84 1497.98C1144.59 1502.85 1157.19 1505.36 1169.92 1505.36C1182.65 1505.36 1195.25 1502.85 1207 1497.98C1218.76 1493.11 1229.44 1485.96 1238.44 1476.96L1892.42 822.788C1910.6 804.596 1920.82 779.925 1920.82 754.2C1920.82 728.475 1910.6 703.803 1892.42 685.611Z" fill="url(#paint0_linear_120_6)"/>
<g filter="url(#filter0_d_120_6)">
<rect x="618.5" y="162" width="843.578" height="843.578" rx="60" transform="rotate(45 618.5 162)" fill="white"/>
</g>
<path d="M309.432 758.154C309.432 686.73 334.197 617.515 379.508 562.303C424.82 507.091 487.873 469.298 557.925 455.364C627.978 441.429 700.694 452.216 763.685 485.885C826.676 519.555 876.044 574.023 903.377 640.011C930.71 705.999 934.317 779.423 913.583 847.772C892.85 916.121 849.059 975.166 789.671 1014.85C730.284 1054.53 658.975 1072.39 587.894 1065.39C516.814 1058.39 450.359 1026.96 399.854 976.454L618.154 758.154L309.432 758.154Z" fill="#F0572E"/>
<circle cx="618.746" cy="757.562" r="250.172" fill="white"/>
<path d="M340.776 909.56L428.36 757.86H253.192L340.776 909.56Z" fill="#F0572E"/>
<rect x="592.132" y="591.372" width="52.0452" height="166.781" fill="#F0572E"/>
<rect x="592.132" y="810.2" width="52.0452" height="205.815" transform="rotate(-90 592.132 810.2)" fill="#F0572E"/>
<defs>
<filter id="filter0_d_120_6" x="0.853027" y="166.853" width="1303.29" height="1303.29" filterUnits="userSpaceOnUse" color-interpolation-filters="sRGB">
<feFlood flood-opacity="0" result="BackgroundImageFix"/>
<feColorMatrix in="SourceAlpha" type="matrix" values="0 0 0 0 0 0 0 0 0 0 0 0 0 0 0 0 0 0 127 0" result="hardAlpha"/>
<feOffset dx="34" dy="60"/>
<feGaussianBlur stdDeviation="40"/>
<feComposite in2="hardAlpha" operator="out"/>
<feColorMatrix type="matrix" values="0 0 0 0 0 0 0 0 0 0 0 0 0 0 0 0 0 0 0.12 0"/>
<feBlend mode="normal" in2="BackgroundImageFix" result="effect1_dropShadow_120_6"/>
<feBlend mode="normal" in="SourceGraphic" in2="effect1_dropShadow_120_6" result="shape"/>
</filter>
<linearGradient id="paint0_linear_120_6" x1="2091.74" y1="-212.559" x2="374.261" y2="1529.65" gradientUnits="userSpaceOnUse">
<stop stop-color="#F03C2E"/>
<stop offset="1" stop-color="#F08B2E"/>
</linearGradient>
</defs>
</svg>
