<svg width="1987" height="1505" viewBox="0 0 1987 1505" fill="none" xmlns="http://www.w3.org/2000/svg">
<path d="M0 81L1008 588V829L0 322V81Z" fill="url(#paint0_linear_0_1)"/>
<path d="M498.182 528.644C416.751 528.644 356.065 568.684 356.065 664.972C356.065 737.511 396.006 787.918 493.792 787.918C576.686 787.918 632.998 739.111 632.998 661.975C632.998 574.592 582.608 528.644 498.182 528.644V528.644ZM335.32 1208.75C316.039 1232.41 296.826 1257.61 296.826 1287.26C296.826 1346.51 372.283 1364.28 475.974 1364.28C561.931 1364.28 678.93 1358.29 678.93 1278.43C678.93 1230.88 622.634 1227.95 551.499 1223.49L335.32 1208.75ZM773.72 533.104C800.319 567.22 828.518 614.632 828.518 682.796C828.518 847.179 699.675 943.534 513.073 943.534C465.61 943.534 422.673 937.61 396.006 930.17L347.165 1008.7L492.26 1017.55C748.533 1033.9 899.568 1041.35 899.568 1238.32C899.568 1408.7 749.997 1505 492.26 1505C224.227 1505 122 1436.84 122 1319.78C122 1253.1 151.645 1217.64 203.499 1168.64C154.572 1148.03 138.354 1110.98 138.354 1070.94C138.354 1038.36 154.572 1008.7 181.291 980.51C207.941 952.386 237.535 924.246 273.102 891.662C200.572 856.082 145.723 779.015 145.723 669.364C145.723 498.988 258.263 382 484.891 382C548.572 382 587.067 387.856 621.171 396.845H910V522.72L773.737 533.104" fill="#E1E1E1"/>
<path d="M1170.17 263.663C1085.78 263.663 1036.93 214.817 1036.93 130.3C1036.93 45.935 1085.78 0 1170.17 0C1256.09 0 1304.95 45.952 1304.95 130.3C1304.95 214.8 1256.1 263.663 1170.17 263.663ZM979.178 1153.86V1036.83L1054.68 1026.52C1075.42 1023.54 1078.39 1019.08 1078.39 996.802V561.364C1078.39 545.144 1073.95 534.711 1059.14 530.321L979.178 502.137L995.458 382.202H1301.95V996.836C1301.95 1020.65 1303.41 1023.56 1325.68 1026.55L1401.17 1036.87V1153.87H979.178" fill="#E1E1E1"/>
<path d="M1986.63 1096.4C1922.97 1127.46 1829.72 1155.64 1745.27 1155.64C1569.1 1155.64 1502.51 1084.59 1502.51 917.118V529.129C1502.51 520.211 1502.51 514.306 1490.6 514.306H1386.95V382.474C1517.33 367.651 1569.1 302.433 1585.38 141.005H1726.07V351.363C1726.07 361.728 1726.07 366.17 1737.89 366.17H1946.63V514.306H1726.07V868.256C1726.07 955.667 1746.79 989.705 1826.75 989.705C1868.2 989.705 1911.13 979.34 1946.63 966.048L1986.63 1096.42" fill="#E1E1E1"/>
<path d="M1008 594L-1.00731e-05 1101V1342L1008 835V594Z" fill="url(#paint1_linear_0_1)"/>
<rect x="979" y="1289" width="1008" height="194" fill="url(#paint2_linear_0_1)"/>
<defs>
<linearGradient id="paint0_linear_0_1" x1="58.0414" y1="-47.4999" x2="1777.46" y2="1127.68" gradientUnits="userSpaceOnUse">
<stop stop-color="#00F0FF"/>
<stop offset="1" stop-color="#000F12"/>
</linearGradient>
<linearGradient id="paint1_linear_0_1" x1="949.959" y1="465.5" x2="-769.465" y2="1640.68" gradientUnits="userSpaceOnUse">
<stop stop-color="#FF9900"/>
<stop offset="1" stop-color="#FFD4A2"/>
</linearGradient>
<linearGradient id="paint2_linear_0_1" x1="1037.04" y1="1255.67" x2="1354.57" y2="2092.44" gradientUnits="userSpaceOnUse">
<stop stop-color="#FF9900"/>
<stop offset="1" stop-color="#FFD4A2"/>
</linearGradient>
</defs>
</svg>
