<svg width="1598" height="1124" viewBox="0 0 1598 1124" fill="none" xmlns="http://www.w3.org/2000/svg">
<path d="M1579.11 459.066L1142.07 21.8915C1136.09 15.9023 1128.98 11.1513 1121.16 7.90983C1113.34 4.66838 1104.96 3 1096.5 3C1088.03 3 1079.65 4.66838 1071.83 7.90983C1064.01 11.1513 1056.9 15.9023 1050.92 21.8915L960.167 112.669L1075.27 227.86C1088.8 223.245 1103.35 222.516 1117.28 225.755C1131.2 228.994 1143.94 236.073 1154.05 246.187C1164.2 256.365 1171.29 269.195 1174.51 283.213C1177.73 297.23 1176.94 311.87 1172.23 325.46L1283.18 436.487C1296.76 431.763 1311.4 430.965 1325.41 434.186C1339.43 437.406 1352.25 444.514 1362.41 454.693C1369.54 461.812 1375.2 470.268 1379.06 479.577C1382.92 488.886 1384.9 498.865 1384.9 508.943C1384.9 519.021 1382.92 529 1379.06 538.309C1375.2 547.617 1369.54 556.073 1362.41 563.193C1355.29 570.327 1346.83 575.987 1337.53 579.849C1328.22 583.71 1318.24 585.698 1308.16 585.698C1298.08 585.698 1288.11 583.71 1278.8 579.849C1269.49 575.987 1261.03 570.327 1253.91 563.193C1243.22 552.481 1235.93 538.844 1232.96 523.998C1229.99 509.152 1231.48 493.759 1237.23 479.755L1133.75 376.233V648.641C1141.26 652.334 1148.12 657.234 1154.05 663.144C1168.43 677.542 1176.51 697.065 1176.51 717.422C1176.51 737.778 1168.43 757.301 1154.05 771.699C1124.06 801.651 1075.49 801.651 1045.59 771.699C1038.46 764.576 1032.8 756.115 1028.94 746.802C1025.08 737.488 1023.09 727.505 1023.09 717.422C1023.09 707.339 1025.08 697.355 1028.94 688.042C1032.8 678.728 1038.46 670.268 1045.59 663.144C1052.75 655.939 1061.28 650.248 1070.69 646.411V371.464C1061.28 367.626 1052.75 361.936 1045.59 354.73C1034.82 343.964 1027.5 330.238 1024.55 315.296C1021.6 300.354 1023.16 284.873 1029.03 270.82L915.555 157.255L615.89 457.044C609.901 463.032 605.151 470.141 601.91 477.966C598.669 485.79 597 494.177 597 502.647C597 511.117 598.669 519.504 601.91 527.329C605.151 535.153 609.901 542.263 615.89 548.25L1052.93 985.468C1058.91 991.458 1066.02 996.209 1073.84 999.45C1081.66 1002.69 1090.04 1004.36 1098.51 1004.36C1106.97 1004.36 1115.35 1002.69 1123.17 999.45C1130.99 996.209 1138.1 991.458 1144.08 985.468L1579.11 550.316C1591.21 538.214 1598 521.803 1598 504.691C1598 487.579 1591.21 471.167 1579.11 459.066Z" fill="url(#paint0_linear_75_83)"/>
<g filter="url(#filter0_d_75_83)">
<rect x="526.292" width="713.177" height="713.177" rx="60" transform="rotate(45 526.292 0)" fill="white"/>
</g>
<path d="M265 504C265 443.616 285.938 385.101 324.245 338.423C362.552 291.746 415.858 259.795 475.082 248.015C534.305 236.235 595.781 245.354 649.035 273.819C702.289 302.283 744.025 348.332 767.133 404.12C790.241 459.907 793.29 521.981 775.762 579.764C758.233 637.548 721.212 687.466 671.004 721.014C620.797 754.561 560.511 769.662 500.418 763.743C440.325 757.825 384.143 731.253 341.446 688.555L526 504L265 504Z" fill="#F0572E"/>
<circle cx="526.5" cy="503.5" r="211.5" fill="white"/>
<path d="M291.5 632L365.546 503.75H217.455L291.5 632Z" fill="#F0572E"/>
<rect x="504" y="363" width="44" height="141" fill="#F0572E"/>
<rect x="504" y="548" width="44" height="174" transform="rotate(-90 504 548)" fill="#F0572E"/>
<defs>
<filter id="filter0_d_75_83" x="0.853027" y="4.85254" width="1118.88" height="1118.88" filterUnits="userSpaceOnUse" color-interpolation-filters="sRGB">
<feFlood flood-opacity="0" result="BackgroundImageFix"/>
<feColorMatrix in="SourceAlpha" type="matrix" values="0 0 0 0 0 0 0 0 0 0 0 0 0 0 0 0 0 0 127 0" result="hardAlpha"/>
<feOffset dx="34" dy="60"/>
<feGaussianBlur stdDeviation="40"/>
<feComposite in2="hardAlpha" operator="out"/>
<feColorMatrix type="matrix" values="0 0 0 0 0 0 0 0 0 0 0 0 0 0 0 0 0 0 0.12 0"/>
<feBlend mode="normal" in2="BackgroundImageFix" result="effect1_dropShadow_75_83"/>
<feBlend mode="normal" in="SourceGraphic" in2="effect1_dropShadow_75_83" result="shape"/>
</filter>
<linearGradient id="paint0_linear_75_83" x1="1711.69" y1="-138.393" x2="569.236" y2="1020.52" gradientUnits="userSpaceOnUse">
<stop stop-color="#F03C2E"/>
<stop offset="1" stop-color="#F08B2E"/>
</linearGradient>
</defs>
</svg>
