<svg width="1790" height="1790" viewBox="0 0 1790 1790" fill="none" xmlns="http://www.w3.org/2000/svg">
<rect x="894.876" width="1265.55" height="1265.55" rx="120" transform="rotate(45 894.876 0)" fill="white"/>
<path d="M1619.42 827.611L962.418 170.4C953.421 161.396 942.739 154.254 930.982 149.381C919.226 144.508 906.625 142 893.899 142C881.173 142 868.572 144.508 856.815 149.381C845.059 154.254 834.377 161.396 825.38 170.4L688.953 306.867L861.984 480.035C882.326 473.098 904.204 472.002 925.137 476.871C946.069 481.741 965.219 492.382 980.414 507.586C995.683 522.888 1006.34 542.176 1011.18 563.248C1016.01 584.321 1014.83 606.329 1007.76 626.759L1174.55 793.668C1194.96 786.566 1216.97 785.367 1238.04 790.208C1259.1 795.049 1278.38 805.734 1293.65 821.037C1304.37 831.74 1312.88 844.452 1318.68 858.446C1324.48 872.44 1327.47 887.442 1327.47 902.592C1327.47 917.742 1324.48 932.744 1318.68 946.738C1312.88 960.732 1304.37 973.444 1293.65 984.147C1282.95 994.872 1270.24 1003.38 1256.24 1009.19C1242.25 1014.99 1227.25 1017.98 1212.1 1017.98C1196.95 1017.98 1181.95 1014.99 1167.95 1009.19C1153.96 1003.38 1141.25 994.872 1130.54 984.147C1114.47 968.043 1103.51 947.543 1099.04 925.224C1094.58 902.906 1096.82 879.765 1105.47 858.713L949.903 703.086V1112.6C961.195 1118.15 971.502 1125.52 980.414 1134.41C1002.04 1156.05 1014.19 1185.4 1014.19 1216C1014.19 1246.6 1002.04 1275.95 980.414 1297.6C935.34 1342.62 862.314 1342.62 817.372 1297.6C806.649 1286.89 798.142 1274.17 792.338 1260.17C786.533 1246.17 783.546 1231.16 783.546 1216C783.546 1200.84 786.533 1185.83 792.338 1171.83C798.142 1157.83 806.649 1145.11 817.372 1134.41C828.134 1123.57 840.964 1115.02 855.099 1109.25V695.918C840.964 690.149 828.134 681.594 817.372 670.762C801.184 654.577 790.173 633.942 785.74 611.48C781.306 589.018 783.651 565.744 792.474 544.618L621.887 373.894L171.396 824.572C162.394 833.573 155.252 844.26 150.38 856.023C145.507 867.786 143 880.394 143 893.127C143 905.86 145.507 918.469 150.38 930.232C155.252 941.995 162.394 952.682 171.396 961.683L828.401 1618.96C837.398 1627.96 848.08 1635.11 859.837 1639.98C871.593 1644.85 884.194 1647.36 896.92 1647.36C909.646 1647.36 922.247 1644.85 934.004 1639.98C945.76 1635.11 956.442 1627.96 965.439 1618.96L1619.42 964.788C1637.6 946.596 1647.82 921.925 1647.82 896.2C1647.82 870.475 1637.6 845.803 1619.42 827.611Z" fill="url(#paint0_linear_213_5)"/>
<circle cx="453" cy="895" r="310" fill="white"/>
<path d="M203.615 895.516C203.615 837.856 223.608 781.979 260.187 737.407C296.767 692.835 347.669 662.326 404.221 651.077C460.773 639.828 519.476 648.536 570.328 675.717C621.18 702.897 661.034 746.869 683.099 800.14C705.165 853.411 708.077 912.685 691.339 967.863C674.601 1023.04 639.249 1070.71 591.306 1102.74C543.364 1134.78 485.797 1149.19 428.414 1143.54C371.032 1137.89 317.384 1112.52 276.612 1071.75L452.843 895.516L203.615 895.516Z" fill="#F0572E"/>
<circle cx="453.321" cy="895.036" r="201.96" fill="white"/>
<path d="M228.919 1017.74L299.625 895.277H158.214L228.919 1017.74Z" fill="#F0572E"/>
<rect x="431.836" y="760.874" width="42.0154" height="134.64" fill="#F0572E"/>
<rect x="431.836" y="937.531" width="42.0154" height="166.152" transform="rotate(-90 431.836 937.531)" fill="#F0572E"/>
<defs>
<linearGradient id="paint0_linear_213_5" x1="1818.73" y1="-70.5587" x2="101.261" y2="1671.65" gradientUnits="userSpaceOnUse">
<stop stop-color="#F03C2E"/>
<stop offset="1" stop-color="#F08B2E"/>
</linearGradient>
</defs>
</svg>
