<svg xmlns="http://www.w3.org/2000/svg" xmlns:xlink="http://www.w3.org/1999/xlink" viewBox="0 0 257.01 257.01"><defs><style>.cls-1{fill:url(#未命名的渐变_452);}</style><linearGradient id="未命名的渐变_452" x1="71.69" y1="30.09" x2="185.33" y2="226.92" gradientUnits="userSpaceOnUse"><stop offset="0" stop-color="#f5a517"/><stop offset="1" stop-color="#e94b24"/></linearGradient></defs><g id="图层_2" data-name="图层 2"><g id="图层_1-2" data-name="图层 1"><path class="cls-1" d="M252.16,117.06,140,4.85a16.54,16.54,0,0,0-23.41,0l-23.3,23.3L122.8,57.71a19.65,19.65,0,0,1,24.89,25.06l28.49,28.49a19.66,19.66,0,1,1-11.8,11.1L137.82,95.79v69.92a19.46,19.46,0,0,1,5.21,3.72,19.68,19.68,0,1,1-21.4-4.3V94.57a19.71,19.71,0,0,1-10.69-25.83L81.79,39.6,4.85,116.54a16.54,16.54,0,0,0,0,23.41L117.06,252.16a16.56,16.56,0,0,0,23.41,0L252.16,140.47A16.54,16.54,0,0,0,252.16,117.06Z"/></g></g></svg>